<svg width="200" height="200" viewBox="0 0 200 200" fill="none" xmlns="http://www.w3.org/2000/svg">
<path fill-rule="evenodd" clip-rule="evenodd" d="M161.144 67.4899C165.059 63.5938 165.059 57.277 161.144 53.3809L146.831 39.1347C142.917 35.2386 136.571 35.2386 132.656 39.1347L122.118 49.6241L86.3618 85.213L114.85 113.568L161.144 67.4899ZM79.0659 92.4749L22.1957 149.08C18.2814 152.976 18.2814 159.292 22.1957 163.189L36.5087 177.435C40.4231 181.331 46.7695 181.331 50.6839 177.435L107.554 120.83L79.0659 92.4749Z" fill="black"/>
<path d="M36.1284 185.333L14.706 164.011C13.0818 162.394 10.318 163.122 9.70059 165.329L1.43229 194.881C0.802986 197.13 2.87192 199.204 5.12267 198.58L34.8134 190.35C37.0308 189.736 37.7593 186.956 36.1284 185.333Z" fill="black"/>
<rect width="40.1944" height="40.1944" rx="12" transform="matrix(0.708759 0.70545 -0.708759 0.70545 171.512 0)" fill="black"/>
</svg>
