<svg width="175" height="200" viewBox="0 0 175 200" fill="none" xmlns="http://www.w3.org/2000/svg">
<path fill-rule="evenodd" clip-rule="evenodd" d="M14.1655 39C6.75026 39 1.10975 45.6584 2.32881 52.9728L25.1621 189.973C26.1265 195.759 31.1328 200 36.9989 200H138.548C144.43 200 149.445 195.736 150.392 189.931L172.729 52.931C173.919 45.6293 168.283 39 160.885 39H14.1655ZM78 80C78 75.0294 82.0294 71 87 71C91.9706 71 96 75.0294 96 80V159C96 163.971 91.9706 168 87 168C82.0294 168 78 163.971 78 159V80ZM29.9902 81.6778C29.0842 76.9422 32.2077 72.4763 36.9668 71.7029C41.7259 70.9294 46.3183 74.1414 47.2243 78.8771L62.1765 157.032C63.0825 161.767 59.9589 166.233 55.1999 167.007C50.4408 167.78 45.8483 164.568 44.9423 159.833L29.9902 81.6778ZM136.867 71.7028C132.107 70.9294 127.515 74.1414 126.609 78.8771L111.657 157.032C110.751 161.767 113.874 166.233 118.633 167.007C123.393 167.78 127.985 164.568 128.891 159.833L143.843 81.6778C144.749 76.9422 141.626 72.4763 136.867 71.7028Z" fill="black"/>
<rect y="13" width="175" height="19" rx="9.5" fill="black"/>
<rect x="58" width="59" height="32" rx="16" fill="black"/>
</svg>
